# xmcd
#
# Track frame offsets:
#	150
#	24555
#	42459
#	66246
#	88175
#	109676
#	131422
#	159301
#	187569
#	208164
#
# Disc length: 3144 seconds
#
# Revision: 2926714582
# Processed by: cddbd v1.5.2PL0 Copyright (c) Steve Scherf et al.
# Submitted via: EZCDAudioConverter 8.0.2.1
#
DISCID=810c460a
DTITLE=Various Artist - Gõ Cửa Trái Tim
DYEAR=2008
DGENRE=Traditional Country
TTITLE0=Quang Lê,Mai Thiên Vân - Gõ Cửa Trái Tim
TTITLE1=Thế Sơn, Hương Thủy - Đoạn cuối cho cuộc tình
TTITLE2=Cẩm Ly - Mình ơi
TTITLE3=Mai Thiên Vân, Quỳnh Dung - LK Tuổi học trò, Trường cũ tình xưa
TTITLE4=Minh Tuyết, Cẩm Ly, Hà Phương - LK Bẽ bàng, Cô gái quê
TTITLE5=Mai Thiên Vân - Trăng phương Nam
TTITLE6=Quang Lê, Mai Thiên Vân - Tội tình
TTITLE7=Mạnh Quỳnh, Hà Phương - Không bao giờ quên anh, Đừng nói xa nhau
TTITLE8=Quang Lê, Ý Lan - Tình hoài hương
TTITLE9=Mai Thiên Vân - Sầu tím thiệp hồng
EXTD=
EXTT0=
EXTT1=
EXTT2=
EXTT3=
EXTT4=
EXTT5=
EXTT6=
EXTT7=
EXTT8=
EXTT9=
PLAYORDER=
